<?xml version="1.0" encoding="utf-8"?>
<!-- Generator: Adobe Illustrator 17.0.0, SVG Export Plug-In . SVG Version: 6.00 Build 0)  -->
<!DOCTYPE svg PUBLIC "-//W3C//DTD SVG 1.1//EN" "http://www.w3.org/Graphics/SVG/1.1/DTD/svg11.dtd">
<svg version="1.1" id="レイヤー_1" xmlns="http://www.w3.org/2000/svg" xmlns:xlink="http://www.w3.org/1999/xlink" x="0px"
	 y="0px" width="695.578px" height="48.241px" viewBox="0 0 695.578 48.241" enable-background="new 0 0 695.578 48.241"
	 xml:space="preserve">
<g>
	<path d="M21.384,47.952c-3.312,0-6.289-0.528-8.928-1.584c-2.641-1.055-4.885-2.556-6.732-4.5c-1.849-1.944-3.265-4.32-4.248-7.128
		C0.492,31.932,0,28.753,0,25.2c0-3.839,0.587-7.308,1.764-10.404C2.94,11.7,4.619,9.048,6.804,6.84
		c2.184-2.207,4.835-3.899,7.956-5.076C17.88,0.589,21.36,0,25.2,0c1.536,0,3.107,0.097,4.716,0.288
		c1.607,0.192,3.083,0.408,4.428,0.648c1.584,0.241,3.12,0.529,4.608,0.864l0.432,0.936c-0.288,1.2-0.552,2.52-0.792,3.96
		c-0.241,1.249-0.457,2.689-0.648,4.32c-0.192,1.632-0.336,3.409-0.432,5.328l-7.128,0.504c0-0.383,0.024-0.792,0.072-1.224
		c0-0.384,0.011-0.792,0.036-1.224c0.024-0.432,0.036-0.888,0.036-1.368c0-2.111-0.625-3.647-1.872-4.608
		c-1.249-0.959-3.24-1.44-5.976-1.44c-3.744,0-6.588,1.309-8.532,3.924c-1.944,2.617-2.916,6.564-2.916,11.844
		c0,5.904,1.055,10.452,3.168,13.644c2.112,3.193,5.04,4.788,8.784,4.788c2.592,0,4.608-0.78,6.048-2.34
		c1.44-1.559,2.448-4.091,3.024-7.596l7.128-0.504c-0.241,1.44-0.457,2.929-0.648,4.464c-0.192,1.296-0.36,2.748-0.504,4.356
		c-0.144,1.609-0.241,3.157-0.288,4.644l-0.72,0.864c-1.44,0.529-2.977,1.008-4.608,1.44c-1.44,0.385-3.108,0.72-5.004,1.008
		C25.716,47.809,23.64,47.952,21.384,47.952z"/>
	<path d="M91.812,9.072c-0.097,2.064-0.205,4.356-0.324,6.876c-0.12,2.52-0.216,5.065-0.288,7.632
		c-0.072,2.568-0.133,5.064-0.18,7.488c-0.049,2.424-0.072,4.572-0.072,6.444s0.216,3.145,0.647,3.816
		c0.433,0.672,1.225,1.008,2.376,1.008c0.288,0,0.588,0,0.9,0s0.587-0.023,0.828-0.072c0.288-0.047,0.576-0.095,0.864-0.144
		l0.359,0.576l-0.647,4.608c-1.104,0-2.28-0.024-3.528-0.072c-1.057-0.048-2.208-0.084-3.456-0.108
		c-1.249-0.025-2.424-0.036-3.528-0.036c-0.72,0-1.645,0.011-2.771,0.036c-1.128,0.023-2.244,0.036-3.348,0.036
		c-1.249,0.047-2.545,0.072-3.889,0.072l0.576-4.752c1.008,0,1.848-0.108,2.521-0.324c0.671-0.216,1.199-0.576,1.584-1.08
		c0.383-0.504,0.659-1.175,0.827-2.016c0.168-0.839,0.253-1.908,0.253-3.204v-9.144h-2.952c-0.817,0-1.656-0.011-2.521-0.036
		c-0.864-0.023-1.632-0.036-2.304-0.036c-0.529,0-1.332,0.036-2.412,0.108S69.131,26.904,67.979,27
		c-1.345,0.144-2.785,0.264-4.32,0.36l-0.144,10.152c0,1.969,0.18,3.276,0.54,3.924c0.359,0.648,1.091,0.972,2.195,0.972
		c0.336,0,0.659,0,0.973,0c0.312,0,0.587-0.023,0.827-0.072c0.288-0.047,0.552-0.096,0.792-0.144l0.36,0.504l-0.647,4.608
		c-1.152,0-2.281-0.024-3.385-0.072c-0.961-0.048-1.933-0.084-2.916-0.108c-0.984-0.025-1.812-0.036-2.483-0.036
		c-1.105,0-2.316,0.023-3.637,0.072c-1.32,0.047-2.556,0.108-3.708,0.18c-1.151,0.072-2.124,0.144-2.916,0.216
		s-1.188,0.132-1.188,0.18l0.504-4.68c1.056-0.191,1.919-0.432,2.592-0.72c0.672-0.288,1.199-0.659,1.584-1.116
		c0.384-0.456,0.648-1.019,0.792-1.692c0.145-0.671,0.216-1.512,0.216-2.52l0.072-27.72c0-1.536-0.169-2.544-0.504-3.024
		c-0.336-0.479-1.032-0.72-2.088-0.72c-0.241,0-0.48,0.012-0.72,0.036c-0.241,0.024-0.48,0.036-0.721,0.036h-0.792L48.898,5.04
		l0.576-4.248c1.055,0.048,2.111,0.072,3.168,0.072h5.399c0.911,0,2.004-0.011,3.276-0.036c1.271-0.024,2.459-0.083,3.563-0.18
		c1.296-0.096,2.64-0.191,4.032-0.288l-0.359,4.824c-0.913,0.144-1.646,0.312-2.196,0.504c-0.553,0.192-0.973,0.468-1.26,0.828
		c-0.288,0.36-0.493,0.84-0.612,1.44c-0.12,0.601-0.205,1.38-0.252,2.34L63.8,20.592l9.217,0.144c1.728,0,3.215-0.036,4.464-0.108
		c1.247-0.072,2.592-0.204,4.032-0.396V9.289c0-1.487-0.169-2.484-0.505-2.988s-1.032-0.756-2.088-0.756
		c-0.24,0-0.48,0.012-0.72,0.036c-0.24,0.024-0.48,0.036-0.72,0.036h-0.792l-0.36-0.576l0.576-4.248
		c1.152,0.048,2.304,0.072,3.456,0.072h5.76c0.815,0,1.824-0.011,3.024-0.036c1.199-0.024,2.351-0.083,3.456-0.18
		c1.296-0.096,2.664-0.191,4.104-0.288l-0.432,4.752c-0.864,0.144-1.584,0.3-2.16,0.468c-0.576,0.168-1.021,0.396-1.332,0.684
		c-0.312,0.288-0.54,0.661-0.684,1.116C91.956,7.837,91.859,8.401,91.812,9.072z"/>
	<path d="M122.786,47.952c-3.216,0-6.096-0.528-8.64-1.584c-2.545-1.055-4.705-2.567-6.48-4.536
		c-1.776-1.968-3.144-4.356-4.104-7.164c-0.961-2.808-1.44-5.964-1.44-9.468c0-3.791,0.564-7.236,1.692-10.332
		c1.127-3.096,2.724-5.748,4.788-7.956c2.063-2.208,4.547-3.912,7.452-5.112c2.903-1.199,6.131-1.8,9.684-1.8
		c3.264,0,6.192,0.516,8.784,1.548c2.592,1.033,4.788,2.52,6.588,4.464s3.168,4.309,4.104,7.092
		c0.936,2.784,1.403,5.929,1.403,9.432c0,3.84-0.564,7.32-1.691,10.44c-1.129,3.121-2.736,5.785-4.824,7.992
		c-2.088,2.208-4.597,3.924-7.524,5.148C129.65,47.341,126.387,47.952,122.786,47.952z M124.587,41.689
		c3.407,0,6.059-1.32,7.955-3.96c1.896-2.639,2.845-6.432,2.845-11.376c0-6.432-1.008-11.268-3.024-14.508s-4.896-4.86-8.64-4.86
		c-3.312,0-5.881,1.321-7.704,3.96c-1.825,2.641-2.736,6.433-2.736,11.376c0,6.384,0.983,11.208,2.952,14.472
		C118.202,40.057,120.986,41.689,124.587,41.689z"/>
	<path d="M175.555,47.952c-3.312,0-6.289-0.528-8.929-1.584c-2.64-1.055-4.885-2.556-6.731-4.5c-1.849-1.944-3.265-4.32-4.248-7.128
		c-0.984-2.808-1.477-5.987-1.477-9.54c0-3.839,0.588-7.308,1.765-10.404c1.176-3.096,2.854-5.748,5.04-7.956
		c2.184-2.207,4.835-3.899,7.956-5.076C172.05,0.589,175.53,0,179.37,0c1.536,0,3.107,0.097,4.716,0.288
		c1.608,0.192,3.084,0.408,4.429,0.648c1.584,0.241,3.119,0.529,4.607,0.864l0.433,0.936c-0.288,1.2-0.553,2.52-0.792,3.96
		c-0.241,1.249-0.457,2.689-0.648,4.32c-0.192,1.632-0.336,3.409-0.432,5.328l-7.128,0.504c0-0.383,0.023-0.792,0.071-1.224
		c0-0.384,0.012-0.792,0.036-1.224c0.023-0.432,0.036-0.888,0.036-1.368c0-2.111-0.624-3.647-1.872-4.608
		c-1.249-0.959-3.24-1.44-5.976-1.44c-3.744,0-6.588,1.309-8.532,3.924c-1.944,2.617-2.916,6.564-2.916,11.844
		c0,5.904,1.056,10.452,3.168,13.644c2.111,3.193,5.04,4.788,8.784,4.788c2.592,0,4.607-0.78,6.048-2.34
		c1.44-1.559,2.448-4.091,3.024-7.596l7.128-0.504c-0.241,1.44-0.457,2.929-0.648,4.464c-0.192,1.296-0.36,2.748-0.504,4.356
		c-0.145,1.609-0.241,3.157-0.288,4.644l-0.72,0.864c-1.44,0.529-2.977,1.008-4.608,1.44c-1.439,0.385-3.108,0.72-5.004,1.008
		C179.886,47.809,177.809,47.952,175.555,47.952z"/>
	<path d="M221.107,47.952c-3.216,0-6.096-0.528-8.64-1.584c-2.545-1.055-4.705-2.567-6.48-4.536
		c-1.776-1.968-3.144-4.356-4.104-7.164c-0.961-2.808-1.44-5.964-1.44-9.468c0-3.791,0.564-7.236,1.692-10.332
		c1.127-3.096,2.724-5.748,4.788-7.956C208.986,4.704,211.47,3,214.375,1.8c2.903-1.199,6.131-1.8,9.684-1.8
		c3.264,0,6.192,0.516,8.784,1.548c2.592,1.033,4.788,2.52,6.588,4.464s3.168,4.309,4.104,7.092
		c0.936,2.784,1.403,5.929,1.403,9.432c0,3.84-0.564,7.32-1.691,10.44c-1.129,3.121-2.736,5.785-4.824,7.992
		c-2.088,2.208-4.597,3.924-7.524,5.148C227.972,47.341,224.708,47.952,221.107,47.952z M222.908,41.689
		c3.407,0,6.059-1.32,7.955-3.96c1.896-2.639,2.845-6.432,2.845-11.376c0-6.432-1.008-11.268-3.024-14.508s-4.896-4.86-8.64-4.86
		c-3.312,0-5.881,1.321-7.704,3.96c-1.825,2.641-2.736,6.433-2.736,11.376c0,6.384,0.983,11.208,2.952,14.472
		C216.523,40.057,219.307,41.689,222.908,41.689z"/>
	<path d="M263.925,47.089c-1.632,0-3.181,0.036-4.644,0.108c-1.465,0.072-2.772,0.155-3.925,0.252
		c-1.344,0.144-2.592,0.263-3.743,0.36l0.504-4.896c1.823-0.288,3.083-0.864,3.779-1.728c0.695-0.864,1.044-2.352,1.044-4.464V9.289
		c0-1.536-0.168-2.544-0.504-3.024c-0.336-0.479-1.032-0.72-2.088-0.72c-0.24,0-0.468,0.012-0.684,0.036
		c-0.216,0.024-0.444,0.036-0.685,0.036h-0.792l-0.359-0.576l0.504-4.248c0.479,0,1.104,0,1.872,0c0.767,0,1.595,0.012,2.483,0.036
		c0.888,0.024,1.812,0.036,2.772,0.036s1.848,0,2.664,0c0.815,0,1.847-0.011,3.096-0.036c1.248-0.024,2.472-0.083,3.672-0.18
		c1.392-0.096,2.855-0.191,4.393-0.288l-0.576,5.112c-1.249,0.144-2.221,0.324-2.916,0.54c-0.696,0.216-1.224,0.517-1.584,0.9
		c-0.36,0.385-0.601,0.889-0.72,1.512c-0.121,0.625-0.205,1.393-0.252,2.304c-0.145,1.969-0.265,4.032-0.36,6.192
		c-0.097,2.16-0.18,4.368-0.252,6.624c-0.072,2.257-0.12,4.536-0.145,6.84c-0.024,2.304-0.035,4.536-0.035,6.696
		c0,0.912,0.06,1.645,0.18,2.196c0.119,0.552,0.335,0.984,0.647,1.296c0.312,0.313,0.757,0.529,1.332,0.648
		c0.576,0.121,1.344,0.18,2.305,0.18c1.68,0,3.06-0.132,4.14-0.396c1.08-0.263,1.955-0.792,2.628-1.584
		c0.672-0.792,1.188-1.908,1.548-3.348c0.36-1.44,0.659-3.312,0.9-5.616l6.12-0.648l0.504,0.72c-0.288,1.537-0.529,3.193-0.72,4.968
		c-0.241,1.537-0.457,3.276-0.648,5.22c-0.192,1.944-0.385,3.996-0.576,6.156l-0.647,0.792c-2.305-0.097-4.608-0.192-6.912-0.288
		c-2.017-0.097-4.201-0.169-6.553-0.216C268.341,47.112,266.085,47.089,263.925,47.089z"/>
	<path d="M332.748,37.585c0.527,1.681,1.188,2.892,1.979,3.636c0.792,0.745,2.004,1.188,3.637,1.332l0.288,0.504l-0.505,4.248
		c-1.104,0-2.185-0.024-3.239-0.072c-0.913-0.048-1.872-0.084-2.88-0.108c-1.009-0.025-1.921-0.036-2.736-0.036
		c-1.537,0-3.049,0.023-4.536,0.072c-1.488,0.047-2.784,0.12-3.888,0.216c-1.345,0.096-2.592,0.191-3.744,0.288l-0.432-0.576
		l0.359-4.32c1.152-0.096,2.1-0.204,2.844-0.324c0.744-0.119,1.308-0.275,1.692-0.468c0.384-0.191,0.648-0.443,0.792-0.756
		c0.144-0.312,0.216-0.684,0.216-1.116c0-0.479-0.12-1.271-0.359-2.376l-1.44-5.472c-0.961-0.047-2.088-0.072-3.384-0.072
		s-2.353,0-3.168,0c-1.152,0-2.365,0.061-3.637,0.18c-1.271,0.121-2.34,0.229-3.203,0.324l-1.801,5.4
		c-0.288,1.008-0.432,1.753-0.432,2.232c0,0.817,0.239,1.38,0.72,1.692c0.479,0.313,1.344,0.468,2.593,0.468h3.096l0.288,0.504
		l-0.504,4.536c-1.152-0.048-2.329-0.121-3.528-0.216c-1.057-0.048-2.196-0.097-3.42-0.144c-1.224-0.048-2.412-0.072-3.564-0.072
		c-0.96,0-1.969,0.011-3.023,0.036c-1.057,0.023-1.992,0.06-2.809,0.108c-1.008,0.047-1.969,0.072-2.88,0.072l0.576-4.824
		c1.104-0.191,2.016-0.636,2.736-1.332c0.72-0.695,1.368-1.836,1.943-3.42l12.816-36.504l11.448-1.152l0.792,0.36
		c1.247,4.8,2.495,9.48,3.744,14.04c0.527,1.969,1.067,3.985,1.619,6.048c0.552,2.064,1.116,4.116,1.692,6.156
		c0.576,2.041,1.14,3.996,1.692,5.868C331.751,34.417,332.267,36.097,332.748,37.585z M309.132,26.497h5.04
		c0.815,0,1.716-0.024,2.7-0.072c0.983-0.047,1.859-0.119,2.628-0.216l-4.176-15.84h-1.009L309.132,26.497z"/>
	<path d="M357.211,6.552c-1.969,0.048-3.504,0.18-4.607,0.396c-1.105,0.216-1.957,0.648-2.557,1.296
		c-0.601,0.648-1.021,1.573-1.26,2.772c-0.24,1.2-0.48,2.833-0.72,4.896l-6.048,0.432c0.096-1.631,0.216-3.335,0.359-5.112
		c0.096-1.487,0.181-3.143,0.252-4.968c0.072-1.823,0.132-3.624,0.181-5.4l0.792-0.792l7.271,0.792h22.393l7.416-0.792l0.792,0.792
		c0.047,1.825,0.107,3.625,0.18,5.4c0.072,1.776,0.155,3.384,0.252,4.824c0.096,1.681,0.191,3.289,0.288,4.824l-6.048,0.432
		c-0.288-2.207-0.553-3.947-0.792-5.22c-0.241-1.271-0.648-2.232-1.225-2.88c-0.575-0.648-1.38-1.08-2.412-1.296
		c-1.032-0.216-2.46-0.348-4.283-0.396c-0.097,1.584-0.192,3.589-0.288,6.012c-0.097,2.424-0.181,5.029-0.252,7.812
		c-0.072,2.784-0.133,5.652-0.181,8.604s-0.071,5.749-0.071,8.388c0,1.825,0.299,3.096,0.899,3.816c0.6,0.72,1.62,1.08,3.061,1.08
		c0.527,0,1.019,0,1.476,0c0.456,0,0.875-0.023,1.26-0.072c0.384-0.047,0.744-0.096,1.08-0.144l0.288,0.36l-0.647,4.968
		c-1.681-0.048-3.312-0.097-4.896-0.144c-1.345-0.048-2.712-0.084-4.104-0.108c-1.394-0.025-2.568-0.036-3.528-0.036
		c-1.008,0-2.208,0.023-3.6,0.072c-1.394,0.047-2.713,0.096-3.961,0.144c-1.488,0.096-3,0.168-4.535,0.216l0.575-4.752
		c1.584-0.144,2.845-0.335,3.78-0.576c0.937-0.24,1.656-0.623,2.16-1.152c0.504-0.528,0.839-1.248,1.008-2.16
		c0.168-0.911,0.252-2.135,0.252-3.672L357.211,6.552L357.211,6.552z"/>
	<path d="M406.771,37.081c0,0.96,0.047,1.728,0.144,2.304c0.096,0.576,0.3,1.008,0.612,1.296c0.312,0.288,0.779,0.48,1.404,0.576
		c0.623,0.097,1.439,0.144,2.447,0.144c2.208,0,3.996-0.083,5.364-0.252c1.368-0.167,2.448-0.54,3.24-1.116s1.368-1.404,1.728-2.484
		s0.659-2.531,0.9-4.356l6.12-0.504l0.504,0.72c-0.241,1.296-0.48,2.664-0.72,4.104c-0.241,1.249-0.469,2.677-0.685,4.284
		c-0.216,1.609-0.421,3.276-0.611,5.004l-0.648,0.792c-2.641-0.048-5.28-0.12-7.92-0.216c-2.304-0.097-4.741-0.169-7.308-0.216
		c-2.568-0.048-4.98-0.072-7.236-0.072c-1.633,0-3.192,0.036-4.68,0.108c-1.489,0.072-2.809,0.155-3.96,0.252
		c-1.345,0.144-2.641,0.263-3.889,0.36l0.576-4.896c2.016-0.288,3.384-0.864,4.104-1.728c0.72-0.864,1.079-2.352,1.079-4.464
		l0.072-27.288c0-1.536-0.156-2.567-0.468-3.096c-0.312-0.528-0.948-0.792-1.908-0.792c-0.24,0-0.468,0.012-0.684,0.036
		c-0.216,0.024-0.444,0.036-0.685,0.036c-0.24,0.048-0.504,0.072-0.792,0.072l-0.504-0.648l0.576-4.392
		c1.487,0.048,3.024,0.097,4.608,0.144c1.343,0.048,2.783,0.072,4.319,0.072s3,0,4.393,0c10.176,0,17.471-0.288,21.888-0.864
		l0.576,0.792c-0.288,1.249-0.529,2.592-0.72,4.032c-0.192,1.249-0.373,2.653-0.54,4.212c-0.169,1.56-0.301,3.18-0.396,4.86
		l-6.624,0.432c0-0.384,0.023-0.744,0.072-1.08c0-0.288,0.011-0.6,0.036-0.936c0.023-0.335,0.036-0.624,0.036-0.864
		c0-1.008-0.097-1.8-0.288-2.376c-0.192-0.576-0.601-1.032-1.225-1.368c-0.624-0.335-1.536-0.551-2.735-0.648
		c-1.201-0.095-2.809-0.144-4.824-0.144c-0.864,0-1.537,0.024-2.017,0.072c-0.479,0.048-0.853,0.156-1.115,0.324
		c-0.265,0.168-0.444,0.408-0.54,0.72c-0.097,0.313-0.145,0.732-0.145,1.26l-0.504,11.16c0.768,0,1.812,0.013,3.132,0.036
		c1.32,0.025,2.508,0.036,3.564,0.036c0.576,0,1.332-0.024,2.268-0.072c0.937-0.047,1.86-0.119,2.772-0.216
		c1.055-0.096,2.16-0.191,3.312-0.288l0.581,0.647l-1.008,6.192c-1.104,0-2.208-0.023-3.312-0.072
		c-0.96-0.047-1.979-0.083-3.06-0.108c-1.08-0.024-2.077-0.036-2.988-0.036c-1.104,0-2.136,0.048-3.096,0.144
		c-0.961,0.097-1.753,0.192-2.376,0.288c-0.097,2.64-0.156,4.741-0.18,6.3C406.782,34.861,406.771,36.121,406.771,37.081z"/>
	<path d="M449.125,47.089c-1.057,0-2.185,0.036-3.384,0.108c-1.2,0.072-2.353,0.155-3.456,0.252
		c-1.249,0.144-2.496,0.263-3.744,0.36l0.576-4.896c2.063-0.335,3.456-0.9,4.176-1.692c0.721-0.792,1.08-2.124,1.08-3.996
		l0.072-28.08c0-1.343-0.169-2.279-0.504-2.808c-0.337-0.528-0.961-0.792-1.872-0.792c-0.241,0-0.504,0.012-0.792,0.036
		c-0.288,0.024-0.553,0.036-0.792,0.036c-0.288,0.048-0.576,0.072-0.864,0.072l-0.432-0.576l0.647-4.392
		c1.44,0.048,2.783,0.072,4.032,0.072c1.104,0.048,2.207,0.072,3.312,0.072c1.104,0,1.991,0,2.664,0
		c0.623,0,1.548-0.011,2.771-0.036c1.224-0.024,2.459-0.06,3.708-0.108c1.44-0.047,2.952-0.119,4.536-0.216
		c4.991,0,8.784,0.948,11.376,2.844c2.592,1.897,3.888,4.669,3.888,8.316c0,2.544-0.709,4.716-2.124,6.516
		c-1.416,1.8-3.275,3.301-5.58,4.5c2.88,0.769,5.292,2.016,7.236,3.744s2.916,4.057,2.916,6.984c0,2.16-0.444,4.129-1.332,5.904
		c-0.889,1.776-2.148,3.301-3.78,4.572c-1.632,1.272-3.612,2.245-5.939,2.916c-2.329,0.672-4.908,1.008-7.74,1.008
		c-0.673,0-1.476-0.049-2.412-0.144c-0.936-0.097-1.896-0.18-2.88-0.252s-1.944-0.144-2.88-0.216
		C450.673,47.125,449.846,47.089,449.125,47.089z M454.021,26.928l-0.288,10.44c0,1.537,0.515,2.628,1.548,3.276
		c1.031,0.648,2.771,0.972,5.22,0.972c2.352,0,4.176-0.623,5.473-1.872c1.296-1.248,1.943-3.024,1.943-5.328
		c0-3.936-2.424-6.456-7.271-7.56L454.021,26.928z M454.165,20.521c1.056,0.144,2.017,0.264,2.88,0.36
		c0.768,0.097,1.523,0.169,2.269,0.216c0.743,0.048,1.307,0.072,1.691,0.072c0.911-0.384,1.729-0.911,2.448-1.584
		c0.623-0.576,1.199-1.356,1.729-2.34c0.527-0.983,0.792-2.219,0.792-3.708c0-2.448-0.805-4.236-2.412-5.364
		c-1.609-1.127-4.116-1.692-7.524-1.692c-0.48,0-0.805,0.084-0.972,0.252c-0.169,0.169-0.277,0.516-0.324,1.044
		c-0.097,1.008-0.169,2.088-0.216,3.24c-0.049,1.152-0.097,2.304-0.145,3.456s-0.097,2.257-0.144,3.312
		C454.188,18.841,454.165,19.753,454.165,20.521z"/>
	<path d="M504.847,47.952c-3.216,0-6.096-0.528-8.64-1.584c-2.545-1.055-4.705-2.567-6.48-4.536
		c-1.776-1.968-3.144-4.356-4.104-7.164c-0.961-2.808-1.44-5.964-1.44-9.468c0-3.791,0.564-7.236,1.692-10.332
		c1.127-3.096,2.724-5.748,4.788-7.956C492.726,4.704,495.21,3,498.115,1.8c2.903-1.199,6.131-1.8,9.684-1.8
		c3.264,0,6.192,0.516,8.784,1.548c2.592,1.033,4.788,2.52,6.588,4.464s3.168,4.309,4.104,7.092
		c0.936,2.784,1.403,5.929,1.403,9.432c0,3.84-0.564,7.32-1.691,10.44c-1.129,3.121-2.736,5.785-4.824,7.992
		c-2.088,2.208-4.597,3.924-7.524,5.148C511.711,47.341,508.447,47.952,504.847,47.952z M506.647,41.689
		c3.407,0,6.059-1.32,7.955-3.96c1.896-2.639,2.845-6.432,2.845-11.376c0-6.432-1.008-11.268-3.024-14.508s-4.896-4.86-8.64-4.86
		c-3.312,0-5.881,1.321-7.704,3.96c-1.825,2.641-2.736,6.433-2.736,11.376c0,6.384,0.983,11.208,2.952,14.472
		C500.263,40.057,503.047,41.689,506.647,41.689z"/>
	<path d="M571.547,37.585c0.527,1.681,1.188,2.892,1.979,3.636c0.792,0.745,2.004,1.188,3.637,1.332l0.288,0.504l-0.505,4.248
		c-1.104,0-2.185-0.024-3.239-0.072c-0.913-0.048-1.872-0.084-2.88-0.108c-1.009-0.025-1.921-0.036-2.736-0.036
		c-1.537,0-3.049,0.023-4.536,0.072c-1.488,0.047-2.784,0.12-3.888,0.216c-1.345,0.096-2.592,0.191-3.744,0.288l-0.432-0.576
		l0.359-4.32c1.152-0.096,2.1-0.204,2.844-0.324c0.744-0.119,1.308-0.275,1.692-0.468c0.384-0.191,0.648-0.443,0.792-0.756
		c0.144-0.312,0.216-0.684,0.216-1.116c0-0.479-0.12-1.271-0.359-2.376l-1.44-5.472c-0.961-0.047-2.088-0.072-3.384-0.072
		s-2.353,0-3.168,0c-1.152,0-2.365,0.061-3.637,0.18c-1.271,0.121-2.34,0.229-3.203,0.324l-1.801,5.4
		c-0.288,1.008-0.432,1.753-0.432,2.232c0,0.817,0.239,1.38,0.72,1.692c0.479,0.313,1.344,0.468,2.593,0.468h3.096l0.288,0.504
		l-0.504,4.536c-1.152-0.048-2.329-0.121-3.528-0.216c-1.057-0.048-2.196-0.097-3.42-0.144c-1.224-0.048-2.412-0.072-3.564-0.072
		c-0.96,0-1.969,0.011-3.023,0.036c-1.057,0.023-1.992,0.06-2.809,0.108c-1.008,0.047-1.969,0.072-2.88,0.072l0.576-4.824
		c1.104-0.191,2.016-0.636,2.736-1.332c0.72-0.695,1.368-1.836,1.943-3.42L549.01,1.225l11.448-1.152l0.792,0.36
		c1.247,4.8,2.495,9.48,3.744,14.04c0.527,1.969,1.067,3.985,1.619,6.048c0.552,2.064,1.116,4.116,1.692,6.156
		c0.576,2.041,1.14,3.996,1.692,5.868C570.55,34.417,571.066,36.097,571.547,37.585z M547.931,26.497h5.04
		c0.815,0,1.716-0.024,2.7-0.072c0.983-0.047,1.859-0.119,2.628-0.216l-4.176-15.84h-1.009L547.931,26.497z"/>
	<path d="M599.236,29.017l-0.071,7.92c0,1.2,0.047,2.16,0.144,2.88c0.096,0.72,0.324,1.272,0.684,1.656
		c0.36,0.385,0.876,0.637,1.549,0.756c0.671,0.12,1.584,0.205,2.735,0.252l0.288,0.432l-0.72,4.464
		c-1.393-0.048-2.592-0.084-3.601-0.108c-1.008-0.025-2.063-0.048-3.168-0.072c-1.104-0.025-2.063-0.036-2.88-0.036
		c-1.104,0-2.257,0.011-3.456,0.036c-1.2,0.024-2.304,0.06-3.312,0.108c-1.2,0.047-2.376,0.12-3.528,0.216l0.648-4.824
		c2.016-0.288,3.371-0.828,4.067-1.62c0.695-0.792,1.044-2.219,1.044-4.284l0.072-27.72c0-1.392-0.156-2.328-0.468-2.808
		c-0.312-0.479-0.925-0.72-1.836-0.72c-0.241,0-0.517,0.012-0.828,0.036c-0.312,0.024-0.588,0.036-0.828,0.036
		c-0.288,0.048-0.576,0.072-0.864,0.072l-0.359-0.576l0.576-4.392c1.151,0.048,2.304,0.072,3.456,0.072
		c0.959,0.048,1.955,0.072,2.987,0.072s1.908,0,2.628,0c0.721,0,1.703-0.011,2.952-0.036c1.248-0.024,2.472-0.06,3.672-0.108
		c1.392-0.047,2.855-0.119,4.393-0.216c5.519,0,9.743,1.056,12.672,3.168c2.927,2.113,4.392,5.184,4.392,9.216
		c0,2.88-0.828,5.484-2.483,7.812c-1.656,2.329-4.045,4.309-7.164,5.94l6.264,10.08c1.344,2.16,2.628,3.744,3.852,4.752
		c1.225,1.008,2.604,1.512,4.141,1.512l0.504,0.648l-0.504,3.816l-8.568,0.792c-3.168,0-5.784-2.232-7.848-6.696l-6.192-12.528
		C604.278,29.017,599.236,29.017,599.236,29.017z M605.932,23.257c0.384-0.144,0.911-0.396,1.584-0.756
		c0.672-0.36,1.343-0.888,2.016-1.584c0.672-0.695,1.261-1.584,1.765-2.664s0.756-2.412,0.756-3.996
		c0-5.184-3.576-7.776-10.729-7.776c-0.528,0-0.863,0.097-1.008,0.288c-0.144,0.192-0.24,0.624-0.288,1.296
		c-0.192,2.88-0.323,5.46-0.396,7.74c-0.072,2.281-0.133,4.525-0.181,6.732L605.932,23.257z"/>
	<path d="M654.496,47.952c-1.297-0.144-2.593-0.288-3.889-0.432c-1.104-0.097-2.293-0.192-3.563-0.288
		c-1.272-0.097-2.412-0.144-3.42-0.144c-0.961,0-1.969,0.036-3.024,0.108c-1.057,0.072-2.064,0.155-3.024,0.252
		c-1.104,0.144-2.185,0.263-3.239,0.36l0.504-4.896c2.063-0.384,3.443-0.996,4.14-1.836c0.695-0.839,1.044-2.268,1.044-4.284
		l0.072-27.288c0-1.536-0.156-2.567-0.468-3.096c-0.313-0.527-0.925-0.792-1.836-0.792c-0.241,0-0.493,0.013-0.757,0.036
		c-0.264,0.025-0.516,0.036-0.756,0.036c-0.288,0.048-0.576,0.072-0.863,0.072l-0.433-0.648l0.576-4.464
		c1.199,0.048,2.376,0.097,3.528,0.144c0.959,0.048,1.968,0.072,3.023,0.072s1.944,0,2.664,0c0.815,0,1.872-0.011,3.168-0.036
		c1.296-0.024,2.567-0.06,3.816-0.108c1.439-0.047,2.927-0.119,4.464-0.216c3.647,0,6.912,0.493,9.792,1.476
		c2.88,0.984,5.315,2.401,7.308,4.248c1.991,1.848,3.516,4.116,4.572,6.804c1.056,2.689,1.584,5.713,1.584,9.072
		c0,3.792-0.612,7.272-1.836,10.44s-2.94,5.893-5.147,8.172c-2.209,2.28-4.85,4.057-7.921,5.328
		C661.503,47.316,658.142,47.952,654.496,47.952z M652.407,6.769c-0.816,0-1.356,0.12-1.619,0.36
		c-0.265,0.241-0.421,0.696-0.469,1.368c-0.288,6.096-0.516,11.496-0.684,16.2c-0.169,4.705-0.252,8.665-0.252,11.88
		c0,1.008,0.083,1.849,0.252,2.52c0.168,0.673,0.479,1.201,0.936,1.584c0.456,0.385,1.068,0.648,1.836,0.792
		s1.752,0.216,2.952,0.216c4.224,0,7.416-1.44,9.576-4.32s3.24-7.224,3.24-13.032c0-6.144-1.285-10.608-3.853-13.392
		C661.755,8.161,657.783,6.769,652.407,6.769z"/>
	<path d="M689.746,47.881c-1.824,0-3.18-0.504-4.067-1.512c-0.889-1.008-1.332-2.328-1.332-3.96c0-1.728,0.515-3.143,1.548-4.248
		c1.031-1.104,2.459-1.656,4.284-1.656c1.728,0,3.06,0.493,3.996,1.476c0.936,0.984,1.403,2.292,1.403,3.924
		c0,1.776-0.516,3.216-1.548,4.32C692.998,47.328,691.57,47.881,689.746,47.881z"/>
</g>
</svg>
